<svg width="61" height="60" viewBox="0 0 61 60" fill="none" xmlns="http://www.w3.org/2000/svg">
<g clip-path="url(#clip0_371_249)">
<path d="M39.9829 0C43.6896 0 46.6943 5.66946 46.6943 10.4724C46.6943 15.2753 43.6896 19.17 39.9829 19.17C36.2761 19.17 33.2715 15.2761 33.2715 10.4724C33.2715 5.66874 36.2761 0 39.9829 0Z" fill="#FA8334"/>
<path d="M20.9126 0C24.6193 0 27.624 5.66946 27.624 10.4724C27.624 15.2753 24.6193 19.17 20.9126 19.17C17.2058 19.17 14.2012 15.2761 14.2012 10.4724C14.2012 5.66874 17.2058 0 20.9126 0Z" fill="#FA8334"/>
<path d="M0.813177 25.3329C-0.760793 21.3705 -0.0715989 15.6708 3.07061 14.4088C6.21282 13.1469 10.6181 16.8002 12.192 20.7626C13.766 24.7249 12.4951 28.9603 9.35288 30.2222C6.21067 31.4842 2.38715 29.2952 0.813177 25.3329Z" fill="#FA8334"/>
<path d="M60.0828 25.3329C58.5089 29.2952 54.6854 31.4842 51.5431 30.2222C48.4009 28.9603 47.1293 24.7249 48.704 20.7626C50.2779 16.8002 54.6832 13.1469 57.8254 14.4088C60.9676 15.6708 61.6568 21.3705 60.0828 25.3329Z" fill="#FA8334"/>
<path d="M54.4594 47.2198C53.7394 43.9748 52.0236 41.0483 50.1258 38.3356C45.679 31.9812 38.5564 25.5648 30.448 25.5648C22.3732 25.5648 15.2184 31.9797 10.7701 38.3356C8.87162 41.0483 7.1558 43.9741 6.43651 47.2198C5.71651 50.4654 6.11054 54.0943 8.11007 56.7306C10.1096 59.3668 13.8973 60.6828 16.859 59.2559C18.6199 58.4074 20.0449 56.6967 21.9878 56.5318C23.771 56.3805 25.3471 57.5884 26.8351 58.5983C27.9104 59.328 29.2064 59.9921 30.448 60.0007C31.6895 59.9921 32.9855 59.328 34.0609 58.5983C35.5482 57.5884 37.1243 56.3812 38.9082 56.5318C40.8511 56.696 42.276 58.4074 44.037 59.2559C46.9987 60.6828 50.7864 59.3668 52.7859 56.7306C54.7854 54.0943 55.1794 50.4654 54.4594 47.2198ZM37.5111 43.3107C36.5963 44.9912 35.1527 46.4721 33.9333 47.6238C33.2778 48.2433 32.5893 48.8224 31.8722 49.3583C31.8708 49.359 31.8694 49.3605 31.8679 49.3612C31.0254 49.985 29.8705 49.985 29.028 49.3612C29.0266 49.3598 29.0252 49.359 29.0237 49.3583C28.3066 48.8231 27.6181 48.2433 26.9626 47.6238C25.7433 46.4721 24.2997 44.9912 23.3848 43.3107C22.629 41.9227 22.2342 40.3978 22.6254 38.8089C23.0001 37.2861 24.1958 35.9486 25.6616 35.7613C27.3566 35.5452 29.3296 36.7445 30.448 38.1217C31.5656 36.7445 33.5393 35.5452 35.2344 35.7613C36.7002 35.9478 37.8959 37.2861 38.2705 38.8089C38.6617 40.3978 38.267 41.9227 37.5111 43.3107Z" fill="#FA8334"/>
</g>
<defs>
<clipPath id="clip0_371_249">
<rect width="60.8955" height="60" fill="white"/>
</clipPath>
</defs>
</svg>
