<svg width="33" height="32" viewBox="0 0 33 32" fill="none" xmlns="http://www.w3.org/2000/svg">
<g clip-path="url(#clip0_223_333)">
<path d="M21.3962 0C23.3798 0 24.9877 3.02371 24.9877 5.58528C24.9877 8.14684 23.3798 10.224 21.3962 10.224C19.4126 10.224 17.8047 8.14723 17.8047 5.58528C17.8047 3.02333 19.4126 0 21.3962 0Z" fill="#FA8334"/>
<path d="M11.1911 0C13.1747 0 14.7826 3.02371 14.7826 5.58528C14.7826 8.14684 13.1747 10.224 11.1911 10.224C9.2075 10.224 7.59961 8.14723 7.59961 5.58528C7.59961 3.02333 9.2075 0 11.1911 0Z" fill="#FA8334"/>
<path d="M0.435157 13.5108C-0.407125 11.3976 -0.0383149 8.35775 1.64318 7.6847C3.32468 7.01166 5.68207 8.96011 6.52435 11.0734C7.36664 13.1866 6.68652 15.4455 5.00503 16.1185C3.32353 16.7916 1.27744 15.6241 0.435157 13.5108Z" fill="#FA8334"/>
<path d="M32.1519 13.5108C31.3097 15.6241 29.2636 16.7916 27.5821 16.1185C25.9006 15.4455 25.2201 13.1866 26.0627 11.0734C26.905 8.96011 29.2624 7.01166 30.9439 7.6847C32.6254 8.35775 32.9942 11.3976 32.1519 13.5108Z" fill="#FA8334"/>
<path d="M29.143 25.1839C28.7577 23.4532 27.8395 21.8924 26.8239 20.4457C24.4443 17.0566 20.6327 13.6345 16.2937 13.6345C11.9726 13.6345 8.1438 17.0559 5.7634 20.4457C4.74745 21.8924 3.82926 23.4529 3.44435 25.1839C3.05905 26.9149 3.26991 28.8503 4.33992 30.2563C5.40993 31.6623 7.43685 32.3642 9.02173 31.6032C9.96408 31.1506 10.7266 30.2383 11.7663 30.1503C12.7206 30.0696 13.564 30.7138 14.3603 31.2524C14.9357 31.6416 15.6293 31.9958 16.2937 32.0004C16.958 31.9958 17.6516 31.6416 18.227 31.2524C19.0229 30.7138 19.8664 30.07 20.821 30.1503C21.8607 30.2379 22.6232 31.1506 23.5656 31.6032C25.1505 32.3642 27.1774 31.6623 28.2474 30.2563C29.3174 28.8503 29.5283 26.9149 29.143 25.1839ZM20.0734 23.0991C19.5838 23.9953 18.8113 24.7851 18.1588 25.3994C17.808 25.7298 17.4396 26.0386 17.0558 26.3244C17.055 26.3248 17.0543 26.3256 17.0535 26.326C16.6027 26.6587 15.9846 26.6587 15.5338 26.326C15.533 26.3252 15.5323 26.3248 15.5315 26.3244C15.1477 26.039 14.7793 25.7298 14.4285 25.3994C13.776 24.7851 13.0035 23.9953 12.5139 23.0991C12.1095 22.3588 11.8982 21.5455 12.1075 20.6981C12.3081 19.886 12.9479 19.1726 13.7323 19.0727C14.6394 18.9574 15.6952 19.5971 16.2937 20.3316C16.8917 19.5971 17.9479 18.9574 18.855 19.0727C19.6394 19.1722 20.2793 19.886 20.4798 20.6981C20.6891 21.5455 20.4778 22.3588 20.0734 23.0991Z" fill="#FA8334"/>
</g>
<defs>
<clipPath id="clip0_223_333">
<rect width="32.5872" height="32" fill="white"/>
</clipPath>
</defs>
</svg>
