<?xml version="1.0" encoding="UTF-8"?>
<svg id="_全台地圖_圓點" data-name="全台地圖+圓點" xmlns="http://www.w3.org/2000/svg" viewBox="0 0 688.43 880.08">
  <defs>
    <style>
      .cls-1 {
        fill: #ebc80f;
      }

      .cls-2 {
        fill: #6f66dc;
      }

      .cls-3 {
        fill: #fff;
        stroke: #aaa;
        stroke-linejoin: round;
      }
    </style>
  </defs>
  <path id="_台東縣" data-name="台東縣" class="cls-3" d="M392.62,681.36l-5.99,3.27-3.91,5.24-2.22,7.38-.78,7.59-5.4,4.84-6.02,16.06-2.93,11.73-7.27,17.99-1.4,6.38-3.18,6.09-.71,10.67,1.02,11.19-6.84,4.11-1.78-2.72-4.34-.71-5.62-4.85-3.56,1.5-1.44-7.06-3.5-5.65,4.28-2.43-2.69-6.74-3.93-.47-1.09-2.87-4.52-2.05,2.28-9.37,4.58-.47,3.72-2.66-3.02-7.76-5.72-2.36-.16-5.13,2.99-2.97-.68-3.04-4.8-13.63,1.34-7.45,3.55-10.3,5.75-8.24v-2.3s.09-5.1,.09-5.1l7.37,.47,4.1-1.54,2.72-4.95,7.99-.02,2.57-5.1-.26-7.25,2.27-2.67-.04-5.55-2.77-2.94-5.18-1.3-.93-6.52,.09-7.25-5.99-3.09-2.37-5.12,1.09-1.75-2.59-5.67-.24-6.46,2.12-2.34-.18-1.2,7.16-8.2,.63-6.03,3.68-.6-2.32-6.29,4.55-10.11-.81-11-2.07-1.57,4.22-2.44,.79-3.87,3.21-2.62-1.38-2.49,2.07-10.18,5.13-1.85,7.43-8.9,3.62,.07,9.68-4.19,2.43-.89,4,2.59,1.4,6.11,3.88,8.28,6.77,2.27,4.69,.06,2.4,5.43,3.41,.59,4.8-2.75,3.18,1.61,5.18,14.85,8.55,3.19,4.06,4.25-.62,2.6,11.78-1.44,2.62-10.59-2.24-3.03,4-3.38,5.03-14.78,.6-3.9,4.22-4.2-.18-3.46,.15-4.3,4.58-5.22,2.75-6.06,2.85-2.25-4.12-3.14-.97-4.41,4.49-8.55,6.36-6.1,10.9,3.01-3.81,9.06-1.38,10.76-2.32,9.96-3.44,.91-3.96,6.85-4.55,16.95-3.15,3.09,2.6,9.68-1.78,6.77,2.9,3.19-3.96,2.22-2.81,4.48-3.57-.26-2.81,4.21-4.1,14.83-3.19,3.8-2.78,7.57-6.15,6.19-3.57,9.58-8.39,11.69-5.28,.26-3.9,3.16-1.34,4.36,1.69,3.45,1.68,5.04-4.47,3.94-1.02,5.67-4.63,3.18-6.58,6.94-10.71,5.27-3.65,3.65Zm97.68,1.51l4.22,.09-3.38,11.07-4.99-3.47-1.78-7.43,5.93-.27Zm-65.77,72.63l2,1.09,12.17-.97,2.16,6.03-2.77,1.47,.96,3.27,6.59,3.89-.84,5.79-5.24-.1-1.82-3.75-5.41-1.75-6.41-5.73-1.38-9.25Z" pointer-events="initial"/>
  <path id="_屏東縣" data-name="屏東縣" class="cls-3" d="M272.21,752.42l-6.84-3.64-6.81-3.72-5.06-3.1-5.4-6.27-2.41-1.01-.37-12.34,1.06-3.92,3.05-5.79,1.15-10.23-2.4-7.45,.18-5.68,.82-6.68,1.93-2.7,1.75-7.22-.32-13.25,3.31-14.65,1.72-1.86,6.65,1.68,11.22,.65,2.85-2.37,6.53-6.29,2.44-2.38,8.99-2.98,.6,1.4,.32,.65,2.06-.68,.65,4.98,3.63,.6,7.22-6.07,7.9,2.01,7.21,8.86,4.31-1.08,6.87-5.83,2.32-.13,7.22,5.77,.93,6.52,5.18,1.3,2.77,2.94,.04,5.55-2.27,2.67,.26,7.25-2.57,5.1-7.99,.02-2.72,4.95-4.1,1.54-7.37-.47-.1,5.1v2.3s-5.74,8.24-5.74,8.24l-3.55,10.3-1.34,7.45,4.8,13.63,.68,3.04-2.99,2.97,.16,5.13,5.72,2.36,3.02,7.76-3.72,2.66-4.58,.47-2.28,9.37,4.52,2.05,1.09,2.87,3.93,.47,2.69,6.74-4.28,2.43,3.5,5.65,1.44,7.06,3.56-1.5,5.62,4.85,4.34,.71,1.78,2.72,6.84-4.11,.03,10.63-1.31,2.02,.43,11.15,1.02,1.53-2.09,2.68,1.06,5.82,2.15,1.03-1.78,4.2-.1,9.62,1.69,4.08-2.71,1.85-3.07,6.65-6.81,3.13-.44,1.7-.43,7.26,5.69,11.67-3.66,1.58-1.15-4.28-5.49-5.1-8.99-2.27-4.21-3.85-2.63,.97-3.1,8.84-2.5,.28-4.16-3.91,.69-11.49-4.87-7.17-1.63-3.54,4.71-11.58-1.47-2.98,4.02-2.59-4.31-12.18,.32-1.89-3.57-11.96,.24-2.95-2.96-5.69-5.21-5.57,.65-3.09-3.65-11.03-7.06-6.92-4.55-7.11-10.4-6.89Zm-36.79,10.22l1.69,3.53-7.43,4.58,1.44-5.63,4.3-2.48Z" pointer-events="initial"/>
  <g id="_雲林縣" data-name="雲林縣">
    <path class="cls-3" d="M315.91,450.17l-2.78-4.75-3.13,3.13-10.05,1.7-3.69-5.12-2.22,2.77-1.46-3.83,3.5-8.3,.9-3.64-1.96-7.9,1.12-5.55,2.57,.38,.03-4.67-3.57-8.09-10.7-1.26-2.31-.55-7.53-1.98-8.58,.29-13.3-4.17-1.84-1.01-3.25-2.36-5.22,.95-8.06-.56-5.65,1.59-11.11,.1-10.8-3.11-7.94-8.01-2.9,7.27-11.68,13.2,2.53,6.92-.46,3.77-4.33,8.8-.35,3.71,4.58-2.24-5.99,4.17-3.5,10.26-2.16,2.6,2.07,2.75,2.5-3.09,.62,3.39,1.41,12.14-.85,5.61,2.44,4.43-1.02,2.77,8.4,2.75,.22-1.06,4.22,.7,4.85,1.74,5.52-2.97-1.15-6.33,3.21-1.15,3.63,3.84,1.16-3.32,2.81-4.29,3.78-.45,.41-2.93,5.86-1.12,.5-3.45,5.74-.79,1.43-2.92,8.28-4.79,2.56,1.13,3.69,1.01,3.28-3.01,5.58,.02,8.56-.89,.12,1.94,6.18,7.32,9.93,3.31,7.59,.24,8.21-2.73,1.19,5.28,4.58-1.52,1.25,1.94,4.07-1.45,5.49,1.86,4.18-.35-1.22-10.1Z"/>
    <polygon class="cls-3" points="152.06 481.83 147.66 486.43 152.34 492.55 150.12 487.61 154 487.81 155.21 482.97 164.78 479.29 167.21 474.92 170.34 475.24 166.96 471.85 152.06 481.83"/>
    <polygon class="cls-3" points="174.83 466.37 178.72 462.08 174.11 463.95 174.83 466.37"/>
  </g>
  <path id="_彰化縣" data-name="彰化縣" class="cls-3" d="M305.13,402.46l-9.96,3.84-10.7-1.26-2.31-.55-7.53-1.98-8.58,.29-13.3-4.17-1.84-1.01-3.25-2.36-5.22,.95-8.06-.56-5.65,1.59-11.11,.1-10.8-3.11-7.94-8.01,3.44-4.77,5.13-3.52,.66-4.77,4.34-4.14,1.02-5.25,5.25-4.12,2.19-6.77,4.05-3.7,1.78-8.52,.13-1.49-.62-1.49,5.41-5.3,4.77-1.71-.97-1.86,4.24-7.18,4.05-11.53,1.99-2.02,4.41-2.85,2.88-4.58,10.96,4.03,1.88,3.57,1.63,3.89,.82,5.15,6.03,6.79,7.39,1.11,7,1.75,2.97,8.44,.1,5.58-.15,4.15,7-.12,5.27,4.18-8.52,1.48-.91,3.62,2.88,2.21-.75,5.41-3.94,1.82,1.66,4.76-1.93,1.44,2.02,1.71-1.79,8.89-1.06,3.02,.68,4.91-2.8,4.23,4.9,1.94,3.15,5.05,5.47-1.83,2.12,4.68Z" pointer-events="initial"/>
  <path id="_苗栗縣" data-name="苗栗縣" class="cls-3" d="M362.81,173.34l4.43,2.07,4.37-1.89-2.16,7.13,2.9,2.51,7.14,7.28h0v.1h.01l3.93,.79,4.08,3.53,2.31,2.99,4.21,.36,2.63,6.1-2.85,6.65-2.84,1.37,5.05,4.15-3.03,4.65,1.12,6.2,5.93,.51,5.96-3.45,4.88-.48,5.58,2.35,7.75-2.49,3.3-.4,.25,3.98,3.66,2.65,2.24,4.46,4.18,3.75-.84,4.31-.31,3.27-3.13,1.25-.09,3.62-2.8,5.55-3.55,1.06-1.99-4.64-7.77,6.25-1.22,3.11-6.19,.27-4.44,7.29-2.97-.08-5.05,3.38-1.16-1.63-6.03,3.46-.72,2.85-3.85,.45-3.96-3.55-3.05-5.2-10.22-.78-5.62-1.98-4.27,1.81,1.25,8.08-2.9,2.43-.91,.34-7.09-.58-4.06,1.46-5.41-.34-6.44-6.41-6.37-1.16-3.03-1.3-9.19-7.13-1.4-.44-2.52-.51-3.52-2.62-6.49-8.57-3.41-1.82-2.09-4.59-4.08-3.15,5.4-6.06,4.58-4.85,.71-4.08,3.72-5.43,4.55-12.98,2.59-7.09,9.19-7.69,.4-2.54,7.09-6.43,8.19-1.66,7.3-7.28,1.18-4.84,3.03-4.2,5.21,1.25,1.97-1.85,1.81,5.85,4.71,1.11,.26,.14Z" pointer-events="initial"/>
  <path id="_新竹縣" data-name="新竹縣" class="cls-3" d="M383.64,161.97l1.49-1.11-2.66-10.1-6.91-5.54-2.19-1.83-6-.78-3.4-3.95-3.49-1.22,4.93-6.41,5.25-12.2,2.84-2.92,.25,.06h.01s2.19,1.18,2.19,1.18l3.28-2.81,2.82,1.46,6.16-.5,2.77,1.41-.18,7.84,7.72,3.15,4.09-1.11-.09,2.98,3.06,1.43,7.71-.11,.57,1.36,.72,3.98-2.6,3.85,12.77,7.9,3.63,3.42,4.94-2.32h.01l3.88,6.77,7.56,4.17,3.35,2.63-2.07,6.12,2.04,2.73-1.85,6.14,4.28-.61,4.77,4.77,.32,3.19,3.02-.34-.26,6.12,3.22,2.97-1.74,3.63,1.03,3.59,5.55,4.19,3.55-1.31,2.09,4.7-4,4.41,1.59,6.64-7.09,7.9-6.47,4.07-5.68,10.13-2.8,2.25-8.15,1.31-2.52-2.69,.84-4.31-4.18-3.75-2.24-4.46-3.66-2.65-.25-3.98-3.3,.4-7.75,2.49-5.58-2.35-4.88,.48-5.96,3.45-5.93-.51-1.12-6.2,3.03-4.65-5.05-4.15,2.84-1.37,2.85-6.65-2.63-6.1-4.21-.36-2.31-2.99-4.08-3.53-3.93-.79h-.01v-.09h0s-7.14-7.29-7.14-7.29l-2.9-2.51,2.16-7.13-4.37,1.89-4.43-2.07,2.46-8.25,3.35-1.42,2.07-3.6,4.25-.74,1.74-3,6.96,5.63Z" pointer-events="initial"/>
  <path id="_臺中縣" data-name="臺中縣" class="cls-3" d="M265.88,308.22l-1.88-3.57-10.96-4.03,4.53-4.31,2.47-5.87,5.13-10.14,3.27-6.99,3.66-4.8,4.46-3.76,.76-2.89,7.94-11.33,5.66-8.55,4.08,3.15,2.09,4.59,3.41,1.82,6.49,8.57,3.52,2.62,2.52,.51,1.4,.44,9.19,7.13,3.03,1.3,6.37,1.16,6.44,6.41,5.41,.34,4.06-1.46,7.09,.58,.91-.34,2.9-2.43-1.25-8.08,4.27-1.81,5.62,1.98,10.22,.78,3.05,5.2,3.96,3.55,3.85-.45,.72-2.85,6.03-3.46,1.16,1.63,5.05-3.38,2.97,.08,4.44-7.29,6.19-.27,1.22-3.11,7.77-6.25,1.99,4.64,3.55-1.06,2.8-5.55,.09-3.62,3.13-1.25,.31-3.27,2.52,2.69,8.15-1.31,2.8-2.25,2.38,1.91v8.97s2.38,2.07,2.38,2.07l6.06,.25,1.99,5.25,3.85-1.8,10.68-1.92,3.44,4.6-3.75,4.38-.16,6.21-2.68,3.61-4.09-.02-.6,3.11-5.1,4.14,1.06,6.12-7.46,2.83-2.19,5.1-4.25-2.37-5.87-.7-4.28,1.51-3.38-4-2.37,.61-3.93,5.91-4.18-2.39-8.94,4.25-2.99-3.3-4.49,3.1-2.69,4.2-7.03-.21-12.17,10.66-7.5-1.03-6.41,9.55-3.82,.98-4.16-1.82-1.59-.92-6.93,5.12-5.44-2.26-1.06,4.45-3.1,3.44,.79-3.89-2.12-4.13-4.21-1.91-3.71,1.67-2.1,5.87,.18,5.77-5.12,1.83-2.38,6.01-3.9,5.07-2.06,2.76-5.62,2.65-3.28-2.63-5.81,.96-6.36-2.22-5.27-4.18-7,.12,.15-4.15-.1-5.58-2.97-8.44-7-1.75-7.39-1.11-6.03-6.79-.82-5.15-1.63-3.89Z" pointer-events="initial"/>
  <path id="_嘉義市" data-name="嘉義市" class="cls-3" d="M259.13,476.54l4.16,3.88,1.82,3.74-3.22,5.5-6.09-2.19-4.35,4.54-2.31,.96-2.35-5.36-8.05-.37,1.12-3.97-2.22-5.05,4.46-1.99,5.72-.82v-1.85l5.16,.3,1.74,4.15,4.41-1.48Z" pointer-events="initial"/>
  <path id="_嘉義縣" data-name="嘉義縣" class="cls-3" d="M358.69,483.95l-6.94,.02-1.46,2-3.96-1.46-5.63,.56-2.72-3.04-.9-6.89-3.34-6.31,3.84-12.59-2.65-3.61-7.86-.17-3.5-2.66-7.66,.36,1.22,10.1-4.18,.35-5.49-1.86-4.07,1.45-1.25-1.94-4.58,1.52-1.19-5.28-8.21,2.73-7.59-.24-9.93-3.31-6.18-7.32-.12-1.94-8.56,.89-5.58-.02-3.28,3.01-3.69-1.01-2.56-1.13-8.28,4.79-1.43,2.92-5.74,.79-.5,3.45-5.86,1.12-.41,2.93-3.78,.45-2.81,4.29-1.16,3.32-3.63-3.84-3.21,1.15,1.15,6.33-5.52,2.97-4.85-1.74,.68,1.22-5.12-.86-8.4-2.75-6.16,1.45,.12,4.89,3.24,1.83,5.56-1.73-3.15,6.24,2.41,5.59-2.09,4.78,1.34,7.5,2.22-1.57-.85,4.98-5.88,.03-3.1,11.14,10.21,7.53,4.91,4.91,1-2.72,5.49,2.39,1.94-1.08,3.96-7.76,6.63-3.41-.32-2.88,4.72,.48-.37-3.3,1.91-2.96,4.12-.02v-2.52s5.1-.07,5.1-.07l5.19-3.97,7.11-.76,6.22-1.59,1.28,1.84,4.3-2.4,8,3.8,1.41,2.65,3.6-1.4-1.57,5.05,3.8,1.02-.28,4.46,6.9,3.63,1.44,2.15-3.99,3.99-.15,6.11-.35,3.9,2.72,4.16-2.94,3.9,8.12,5.47,5.35,.69,3.24-6.22,3.99,4.24,4.24-1.68,5.78,1.22-3.43-11.04,1.9-7.16,1.19,1.58,1.25-1.01,9.65,2.7,2.9-6.06,4.24,.77,3.94-4.07,2.34-5.58,5.77,.52,4.9-7.15,4.74-.2,5.56-10.29-.07-1.66,8.69-3.93,1.07-2.85,4.8-2.96,3.57,.43,6.69-3.19-9.18-1.55Zm-96.8,5.71l-6.09-2.19-4.35,4.54-2.31,.96-2.35-5.36-8.05-.37,1.12-3.97-2.22-5.05,4.46-1.99,5.72-.82v-1.85l5.16,.3,1.74,4.15,4.41-1.48,4.16,3.88,1.82,3.74-3.22,5.5Z"/>
  <path id="_高雄市" data-name="高雄市" class="cls-3" d="M374.66,513.18l.24-2.99,4.49-3.49-1.5-1.77,5.84-3.57,.6-4.18-3.21-3.15-1.56-6.66-9.58-2.41-2.1,.55-6.69,3.19-3.57-.43-4.8,2.96-1.07,2.85-8.69,3.93,.07,1.66-5.56,10.29-4.74,.2-4.9,7.15-5.77-.52-2.34,5.58-3.94,4.07-4.24-.77-2.9,6.06-9.65-2.7-1.25,1.01-1.19-1.58-1.9,7.16,3.43,11.04-.46,4.01-3.41,4.58,1.04,1.78-9.18,9.68-6.03,13.14-7.65,7.27-9,8.63-4.46,3-.6,3.13-4.52-.1-1.68,6.38-1.79-.42-2.27,4.99-4.31,10.72-1.79,1.01-2.22-2.47-6.25,2.85-4.72,5.62-7.94-2.55-8.83-1.47,.06,2.04-1.91-.13-2.55,.35-15.3-6.44-.99,.23-2.97,2.12,4.72,15.3,2.43,7.47-3.55,1.22,5.74,2.94,6.34,14.8,3,6.32,.41,6.18-.13,6.16-1.72,4.51,3.06,6.61-1.56,1.13,1.66,4.38,8.96,10.96,.18,3.02,4.18,4.42-6.52-2.64,4.35,5.85,4.88-1.63,5.78,5.14,9.84,6.66,5.18,1.28-.37-12.34,1.06-3.92,3.05-5.79,1.15-10.23-2.4-7.45,.18-5.68,.82-6.68,1.93-2.7,1.75-7.22-.32-13.25,3.31-14.65,1.72-1.86,6.65,1.68,11.22,.65,2.85-2.37,6.53-6.29,2.44-2.38,8.99-2.98,.6,1.4,.32,.65,2.06-.68,.65,4.98,3.63,.6,7.22-6.07,7.9,2.01,7.21,8.86,4.31-1.08,6.87-5.83,2.32-.13,7.22,5.77,.09-7.25-5.99-3.09-2.37-5.12,1.09-1.75-2.59-5.67-.24-6.46,2.12-2.34-.18-1.2,7.16-8.2,.63-6.03,3.68-.6-2.32-6.29,4.55-10.11-.81-11-2.07-1.57,4.22-2.44,.79-3.87,3.21-2.62-1.38-2.49,2.07-10.18,5.13-1.85,7.43-8.9,3.62,.07,9.68-4.19,4.16-2.99,.59-3.89-14.2-8.5Z"/>
  <path id="_連江縣" data-name="連江縣" class="cls-3" d="M129.36,56.4l4.28,5.24,.9-2.88,5.86-.19-2.34,4.05-6.97,3.24-3.59-1.91,2.02-3.18-.15-4.37Zm18.2-15.95l4.05,2.45-.99,2.23-5.09,.26-5.03,3.49,.43-4.16,3.62-.94,3.02-3.32Zm-2.65,67.72l-1.29,3.52-3.93,1.7,2.87-4.68,2.35-.54Zm-9.24-2.91l-2.19,3.63-2.47-2.93,4.66-.7ZM258.32,3.71l.44,2.98,5.83-.39-3.09,4.02-2.62-.46-.56-6.16Z" pointer-events="initial"/>
  <path id="_金門縣" data-name="金門縣" class="cls-3" d="M141.25,237.6l.85,4.08-3.81,5.97-6.84,2.77,.29-4.31-5.69-2.79-9.64,2.14-3.68,3.84-2.37,5.07-3.27,1.33-5.52-2.53-4.08-4.33,2.93-1.47,2.78-5.72-3.85-8.37,1.5-3.81,5.83-.81,3.02,3.56,7.91,1.33,1.4-1.35,3.15-3.65,4.96-10.24,6.02,2.32,3.8,3.53,4.31,13.42Zm-50.45,.34l4.65,2.61-.93,5.19-8.97,5.12-2.85-1.19,.75-4.61,3.15-6.04,4.21-1.09Z" pointer-events="initial"/>
  <path id="_宜蘭縣" data-name="宜蘭縣" class="cls-3" d="M569.83,172.01l-.07,11.35,1.6,7.12,3.1,7.05,6.02,3.36-3.47,6.87,.88,10.44-7.28,3.63-.38,5.6,4.58,3.62-9.14,5.6-4.56,7.57-2.13,5.82-.94,9-3.71,10.04,.74,4.35-13.7-2.88-11.56-5.65-3.43-.06-4.12-5.32-2.12,.99,2.57,7.96-3.43-2.44-.53,2.88-4.38,1.28,2.4,3.9-10.77-2.52-.91-2.13-7.78-2.99-5.5,.96-10.58-6.41-3.44-4.6-10.68,1.92-3.85,1.8-1.99-5.25-6.06-.25-2.4-2.07v-8.97s-2.37-1.91-2.37-1.91l5.68-10.13,6.47-4.07,7.09-7.9-1.59-6.64,4-4.41-2.09-4.7,5.68-3.62,7.27-16.92,4.69-.17,13.05-3.69,1.49-4.35,10.02-3.64,2.4-1.9-1.74-6.11,1.74-5.23-1.28-3.77,7.24-1.73,.5-3.58,8.03-.58,6.55-1.63-.37-1.77,4.55-3.66,5.75-4.29,3.38,.53,3.12-.76,5.55-4.4-.81-3.86,2.69-2.62,4.19-1.71,4.62,.41,4.65-4.75-2.81-4.66,1.68-4.6,3.22-.83,6.25,.12,3.28-2.84,13.76-3.38,.74,1.18-9.27,3.68-4.8,7.27-3.85,1.19-.57,4.1-7.8,7.27-4.75,10.02-2.37,10.92-.53,7.35,.69,7.68,4.02,7.52Zm27.79-32.08l-2.69,2.43-3.15-2.59,5.84,.16Zm72.66,23.52l3.93,1.98-7.83,2.13,3.9-4.11Z" pointer-events="initial"/>
  <path id="_南投縣" data-name="南投縣" class="cls-3" d="M292.67,380.48l1.79-8.89-2.02-1.71,1.93-1.44-1.66-4.76,3.94-1.82,.75-5.41-2.88-2.21,.91-3.62,8.52-1.48,6.36,2.22,5.81-.96,3.28,2.63,5.62-2.65,2.06-2.76,3.9-5.07,2.38-6.01,5.12-1.83-.18-5.77,2.1-5.87,3.71-1.67,4.21,1.91,2.12,4.13-.79,3.89,3.1-3.44,1.06-4.45,5.44,2.26,6.93-5.12,1.59,.92,4.16,1.82,3.82-.98,6.41-9.55,7.5,1.03,12.17-10.66,7.03,.21,2.69-4.2,4.49-3.1,2.99,3.3,8.94-4.25,4.18,2.39,3.93-5.91,2.37-.61,3.38,4,4.28-1.51,5.87,.7,4.25,2.37,1.53,5.87-5.49,1.02-4.6,4.05-4.46,.68,.37,5.07-1.49,5.36,3.32,.87,4.59,4.03,2.87,.44-2.12,4.84,.96,2.22-5.59,6.26-3.6,1.85,.57,3.65-5.87,11.89,1.09,4.26,3,2.4-.78,9.85-1.84,7.05-.29,6.39-2.8,1.26-3.05,6.73-1.1,5.75-2.16,4.97,.65,3.26-5.43,3.22,.41,2.38,5.13,4.66,2.82,8.84-1.31,11.91-5.06,15.29-4.31-.06-3.6,4.36-5.84-.92,1.6,4.26-3.24,3.9,1.03,6.34-3.47,3.39-3.47-1.44-6.5,1.54-5.4-.9-1.49,4.76-5.28,6.24,4.59,3.14-1.71,2.78-8.33,3.84-1.56-6.66-9.58-2.41-2.1,.55-9.18-1.55-6.94,.02-1.46,2-3.96-1.46-5.63,.56-2.72-3.04-.9-6.89-3.34-6.31,3.84-12.59-2.65-3.61-7.86-.17-3.5-2.66-7.66,.36-2.78-4.75-3.13,3.13-10.05,1.7-3.69-5.12-2.22,2.77-1.46-3.83,3.5-8.3,.9-3.64-1.96-7.9,1.12-5.55,2.57,.38,.03-4.67-3.57-8.09,9.96-3.84-2.12-4.68-5.47,1.83-3.15-5.05-4.9-1.94,2.8-4.23-.68-4.91,1.06-3.02Z" pointer-events="initial"/>
  <path id="_花蓮縣" data-name="花蓮縣" class="cls-3" d="M480.15,491.92l-6.36,6.1-4.49,8.55,.97,4.41,4.12,3.14-2.85,2.25-2.75,6.06-4.58,5.22-.15,4.3,.18,3.46-4.22,4.2-.6,3.9-5.03,14.78-4,3.38,2.24,3.03-2.62,10.59-11.78,1.44,.62-2.6-4.06-4.25-8.55-3.19-5.18-14.85-3.18-1.61-4.8,2.75-3.41-.59-2.4-5.43-4.69-.06-6.77-2.27-3.88-8.28-1.4-6.11-4-2.59-2.43,.89,4.16-2.99,.59-3.89-14.2-8.5,.24-2.99,4.49-3.49-1.5-1.77,5.84-3.57,.6-4.18-3.21-3.15,8.33-3.84,1.71-2.78-4.59-3.14,5.28-6.24,1.49-4.76,5.4,.9,6.5-1.54,3.47,1.44,3.47-3.39-1.03-6.34,3.24-3.9-1.6-4.26,5.84,.92,3.6-4.36,4.31,.06,5.06-15.29,1.31-11.91-2.82-8.84-5.13-4.66-.41-2.38,5.43-3.22-.65-3.26,2.16-4.97,1.1-5.75,3.05-6.73,2.8-1.26,.29-6.39,1.84-7.05,.78-9.85-3-2.4-1.09-4.26,5.87-11.89-.57-3.65,3.6-1.85,5.59-6.26-.96-2.22,2.12-4.84-2.87-.44-4.59-4.03-3.32-.87,1.49-5.36-.37-5.07,4.46-.68,4.6-4.05,5.49-1.02-1.53-5.87,2.19-5.1,7.46-2.83-1.06-6.12,5.1-4.14,.6-3.11,4.09,.02,2.68-3.61,.16-6.21,3.75-4.38,10.58,6.41,5.5-.96,7.78,2.99,.91,2.13,10.77,2.52-2.4-3.9,4.38-1.28,.53-2.88,3.43,2.44-2.57-7.96,2.12-.99,4.12,5.32,3.43,.06,11.56,5.65,13.7,2.88-1.04,3.16-4.9,5.74-.93,4.69-6.22,4.65-2.49,4.31-7.37,4.54-2.44,3.37-1.1,5.6,1.21,9.38-1.68,2.63-5.21,4.14-3.35,4.52-.6,7.07,3.88,8.64,3.32,4.53-4.5,9.91-1.4-2.12-2.88,3.72,.03,4.74,.49,2.73-3.12,19.13-4.97,11.56-2.06,16.18-4.19,8.65,.94,3.36-2.21,10.6-2.87,7.39-.26,7.33-1.85,7.52-2.44,3.9-1.78,8.52,2.38,7.56-3.24,7.75-1.15,6.08-10.9-3.01Z" pointer-events="initial"/>
  <path id="_澎湖縣" data-name="澎湖縣" class="cls-3" d="M44.05,441.23l2.37-5.51,6.22-2.25,3.56,.75,2.82,6.61-2.88,1.73,3.44,8.81,2.87,1.38-.13,5.02,6.11-7.37,2.57,4.78,1.56-2.75,2.6,7.2,2.97,4.45-10.77-1.34-2.74,2.37-6.65,5.58,.13,5.23-7.89-.21-1.06-4.29-2.34,.58-3.4-6.13,2.21-.13,.68,4.8,5.91-.61,3.52,1.3,1.65-3.44-2.52-3.12-4.38,1.63,1.5-4.29-4.55,.34,1-5.95,4.31-1.25,1.06,4.73,2.24,.73,2.04-4.07,1.4-5.2-3.38-2.38-.85-6.5-5.13-5.21-6.05,3.99-1.1,3.1-5.16,1.82,1.25,6.26-2.49,2.4,.65,7.03-3.96-1.02-6.84,1.17,3.53-2.99,2.31,1.24,2.52-4.22-3.35-1.97,4.33-4.52-2.16-1.71,3.46-8.89,3.72,4.1,3.28-1.83Zm15.46-27.4l2.47,3.32-4.53,2.73-1.72-1.47,3.78-4.58Zm14.9,122.98l-1.18,4.97-1.27-4.32,2.44-.65Zm-32.14-27.76l1.54,2.57-5.59-.43,4.05-2.14Zm-9.94-5.48l3.28,1.63,1.32,9.28-6.31-.62,1.9-2.32-.19-7.97Zm-12.25,43.9l.6,5.23-5.59,1.16-.87-5.39,5.86-1.01Z" pointer-events="initial"/>
  <path id="_基隆市" data-name="基隆市" class="cls-3" d="M540.97,58.79l9.34,1.63,2.65-1.14,6.49,4.28,3.16-.57-.81,3.27-2.03,2.48,.72,3.06-5.68-1.47-4.85,2.31-.41,.34,2.27,2.31-.18,4.07,3.8,3.65-3.06,3.31-7.4,.92-.43-.41-3.63-3.31-2.97,.15-10.02-6.58-2.9-8.71-3.72-2.99,11.65-4.07,7.19-5.05,.07-.08,.07-.15,.68,2.75Z" pointer-events="initial"/>
  <path id="_新竹市" data-name="新竹市" class="cls-3" d="M355.62,144.69l4.85-7.26,3.49,1.22,3.4,3.95,6,.78,2.19,1.83,6.91,5.54,2.66,10.1-1.49,1.11-6.96-5.63-1.74,3-4.25,.74-2.07,3.6-3.35,1.42-2.46,8.25-.26-.14-4.71-1.11-1.81-5.85-1.97,1.85-5.21-1.25,5.33-6.65-1.29-6.88,2.74-8.63Z" pointer-events="initial"/>
  <path id="_臺北市" data-name="臺北市" class="cls-3" d="M518.86,84.55l2.02,6.63,5.8,2.56,3.59-.59-.43,1.72-5.38-.08-9.92,2.31,.66,9.47,4.55,1.94-2.47,1.33-11-.18-1.68-4.96-5.09-1.56-.07-1.25,.1-3.35-4.46-3.31-4.21,3.18-1.24-1.79-.78-5.8,4.44-2.67,.03-7.14-3.12-4.25-6.53-2.13-.82-2.42,.43-.88-.49-1.72,10.03-12.75,4.02,.98,.38-2.46,4.83-2.49,3.77-5.37,3.87,3.75,1.75,.18-1.12,7.35,2.52,.48-.04,2.92,4.16,5.56-2.78,4.07,7,4.57,.54,2.43-2.85,5.7Z" pointer-events="initial"/>
  <path id="_新北市" data-name="新北市" class="cls-3" d="M472.09,95.81l-3.18-2.71,1.09-3.87-5.25-4.98-5.78-.06-1.07-3.99-10.86-3.95-4.62-3.36,.16-1.97,16.06-3.49,2.82-2.05,5.49-2.04,.46-5.13,2.43,2.33,3.46-4.25-2.87-3.62,7.43-7.55,1.97-5.62,1.56-2.79,4.33-.8,2.15-3.78,6.13-3.02,7.68-2.99,4.4,.66,3.97-1.75,9.87,5.86,3.06,3.99-.06,4.92,3.74,4.54,4.68,5.06,5.06-1.47-1.56,4.81,5.46,3.29-.07,.15-.07,.08-7.19,5.05-11.65,4.07,3.72,2.99,2.9,8.71,10.02,6.58,2.97-.15,3.63,3.31,.43,.41,7.4-.92,3.06-3.31-3.8-3.65,.18-4.07-2.27-2.31,.41-.34,4.85-2.31,5.68,1.47-.72-3.06,2.03-2.48,5.31,.14,3.22,1.78,11.8,2.24,6.97-.65,.91,3.59-2.78,4.65,.21,2.95,3.75,3.78-.5,5.91,4.03,4.74,6.09-1.39,5.49,1.78,1.74,4.54-8.97,4.67-.74-1.18-13.76,3.38-3.28,2.84-6.25-.12-3.22,.83-1.68,4.6,2.81,4.66-4.65,4.75-4.62-.41-4.19,1.71-2.69,2.62,.81,3.86-5.55,4.4-3.12,.76-3.38-.53-5.75,4.29-4.55,3.66,.37,1.77-6.55,1.63-8.03,.58-.5,3.58-7.24,1.73,1.28,3.77-1.74,5.23,1.74,6.11-2.4,1.9-10.02,3.64-1.49,4.35-13.05,3.69-1.31-5.62-5.47-2.39-6.18-14.52,6.18-7.03-2.78-1.11-.41-4.26-4.77-5.89-5.05-2.14-3.62,2.4-5.27-2.39-4.37-.25,5.06-2.08-2.75-3.79,1.94-1.28-2.81-4.89-5-1.93-.62-4.09,5.09-3.06-4.08,.11-1.43-2.63,2.82-2.63-.94-5.68,1.32-1.95,2.96-.83,5.97,1.4,3.85-2.46-.29-2.33,4.34-.91-2.74-3.26,4.78-1.83Zm116.73-25.93h0s0,0,0,0Zm.24-.09l-.12,.07,.12-.07Zm-.24,.11h0Zm-93.76,25.33l4.46,3.31-.1,3.35,.07,1.25,5.09,1.56,1.68,4.96,11,.18,2.47-1.33-4.55-1.94-.66-9.47,9.92-2.31,5.38,.08,.43-1.72-3.59,.59-5.8-2.56-2.02-6.63,2.85-5.7-.54-2.43-7-4.57,2.78-4.07-4.16-5.56,.04-2.92-2.52-.48,1.12-7.35-1.75-.18-3.87-3.75-3.77,5.37-4.83,2.49-.38,2.46-4.02-.98-10.03,12.75,.49,1.72-.43,.88,.82,2.42,6.53,2.13,3.12,4.25-.03,7.14-4.44,2.67,.78,5.8,1.24,1.79,4.21-3.18Z" pointer-events="initial"/>
  <path id="_臺南市" data-name="臺南市" class="cls-3" d="M267.45,542.93l8.12,5.47,5.35,.69,3.24-6.22,3.99,4.24,4.24-1.68,5.78,1.22-.46,4.01-3.41,4.58,1.04,1.78-9.18,9.68-6.03,13.14-7.65,7.27-9,8.63-4.46,3-.6,3.13-4.52-.1-1.68,6.38-1.79-.42-2.27,4.99-4.31,10.72-1.79,1.01-2.22-2.47-6.25,2.85-4.72,5.62-7.94-2.55-8.83-1.47,.06,2.04-1.91-.13-2.55,.35-15.3-6.44-.99,.23-2.97,2.12-.63-9.45-3.81-3.93,.75-2.34-4.4-5.61-6.71-5.33-10.9-6.27-5.43-5.98-2.38,.38,1.53-8.97,3.87-5.84,1.93-9.38,2.04-4.96,1.84-4.24,1.29-10.14,2.35-6.05,.68-8.41,3.31-2.82,1.68-7.43,10.21,7.53,4.91,4.91,1-2.72,5.49,2.39,1.94-1.08,3.96-7.76,6.63-3.41-.32-2.88,4.72,.48-.37-3.3,1.91-2.96,4.12-.02v-2.52s5.1-.07,5.1-.07l5.19-3.97,7.11-.76,6.22-1.59,1.28,1.84,4.3-2.4,8,3.8,1.41,2.65,3.6-1.4-1.57,5.05,3.8,1.02-.28,4.46,6.9,3.63,1.44,2.15-3.99,3.99-.15,6.11-.35,3.9,2.72,4.16-2.94,3.9Z" pointer-events="initial"/>
  <path id="_桃園市" data-name="桃園市" class="cls-3" d="M464.75,84.24l5.25,4.98-1.09,3.87,3.18,2.71-4.78,1.83,2.74,3.26-4.34,.91,.29,2.33-3.85,2.46-5.97-1.4-2.96,.83-1.32,1.95,.94,5.68-2.82,2.63,1.43,2.63,4.08-.11-5.09,3.06,.62,4.09,5,1.93,2.81,4.89-1.94,1.28,2.75,3.79-5.06,2.08,4.37,.25,5.27,2.39,3.62-2.4,5.05,2.14,4.77,5.89,.41,4.26,2.78,1.11-6.18,7.03,6.18,14.52,5.47,2.39,1.31,5.62-4.69,.17-7.27,16.92-5.68,3.62-3.55,1.31-5.55-4.19-1.03-3.59,1.74-3.63-3.22-2.97,.26-6.12-3.02,.34-.32-3.19-4.77-4.77-4.28,.61,1.85-6.14-2.04-2.73,2.07-6.12-3.35-2.63-7.56-4.17-3.88-6.77h-.01l-4.94,2.32-3.63-3.42-12.77-7.9,2.6-3.85-.72-3.98-.57-1.36-7.71,.11-3.06-1.43,.09-2.98-4.09,1.11-7.72-3.15,.18-7.84-2.77-1.41-6.16,.5-2.82-1.46-3.28,2.81-2.19-1.17h-.01s-.25-.07-.25-.07l6.38-8.87-.07-3.87,2.31-4.33,7.41-9.12,7.94-3.27,.78-1.66,8.02-3.49,6.88-1.75,13.08-6.65,8.33-2.42,2.6-1.03,5.41,1.47-.16,1.97,4.62,3.36,10.86,3.95,1.07,3.99,5.78,.06Z" pointer-events="initial"/>
  <circle id="dot_臺北市" class="cls-2" cx="506.52" cy="82.41" r="10"/>
  <circle id="dot_基隆市" class="cls-2" cx="541.95" cy="67" r="10"/>
  <circle id="dot_新北市" class="cls-2" cx="506.52" cy="127.43" r="10"/>
  <circle id="dot_桃園市" class="cls-2" cx="426.28" cy="109.83" r="10"/>
  <circle id="dot_臺中市" class="cls-2" cx="310.4" cy="300.63" r="10"/>
  <circle id="dot_南投縣" class="cls-2" cx="373.49" cy="398.71" r="10"/>
  <circle id="dot_彰化縣" class="cls-2" cx="255.88" cy="363.46" r="10"/>
  <circle id="dot_雲林縣" class="cls-2" cx="226.55" cy="421.58" r="10"/>
  <circle id="dot_澎湖縣" class="cls-2" cx="48.45" cy="456.41" r="10"/>
  <circle id="dot_嘉義市" class="cls-2" cx="253.29" cy="480.43" r="10"/>
  <circle id="dot_嘉義縣" class="cls-2" cx="291.56" cy="491.92" r="10"/>
  <circle id="dot_臺南市" class="cls-2" cx="219.68" cy="566.74" r="10"/>
  <circle id="dot_高雄市" class="cls-2" cx="298.65" cy="599.81" r="10"/>
  <circle id="dot_屏東縣" class="cls-2" cx="290.93" cy="715.6" r="10"/>
  <circle id="dot_宜蘭縣" class="cls-2" cx="526.52" cy="215.14" r="10"/>
  <circle id="dot_新竹市" class="cls-2" cx="357.87" cy="152.35" r="10"/>
  <circle id="dot_新竹縣" class="cls-1" cx="420.57" cy="183.12" r="10"/>
  <circle id="dot_苗栗縣" class="cls-1" cx="348.85" cy="232.15" r="10"/>
  <circle id="dot_金門縣" class="cls-1" cx="116.42" cy="235.45" r="10"/>
  <circle id="dot_連江縣" class="cls-1" cx="154.93" cy="57" r="10"/>
  <circle id="dot_花蓮縣" class="cls-1" cx="472.09" cy="411.58" r="10"/>
  <circle id="dot_臺東縣" class="cls-1" cx="392.75" cy="630.45" r="10"/>
</svg>